{"title":"Moby - Moby ( 1992 - First Album )( EAC Flac )","uid":4939781,"size":404296319,"categoryP":"audio","categoryS":"flac","magnet":"?xt=urn:btih:bfc4dc85f98428db860bb6d2cd70c0d9378bd612&amp;dn=Moby+-+Moby+%28+1992+-+First+Album+%29%28+EAC+Flac+%29&amp;tr=udp%3A%2F%2Ftracker.openbittorrent.com%3A80&amp;tr=udp%3A%2F%2Fopen.demonii.com%3A1337&amp;tr=udp%3A%2F%2Ftracker.coppersurfer.tk%3A6969&amp;tr=udp%3A%2F%2Fexodus.desync.com%3A6969","seeders":1,"leechers":0,"uploader":"foteberg","files":24,"time":1244403969,"description":"Moby - Moby  (EAC FLAC CUE Log Scans) Included\n\t\nLabel:\tInstinct Records\nCatalog#:\tEX-241-2, EX241-2\nFormat:\tCD, Album\nCountry:\tUS\nReleased:\t27 Jul 1992\nGenre:\tElectronic\nStyle:\tAcid House, Techno\nCredits:\tArtwork By - Dave Brubaker\nPhotography - Jill Greenberg\nProducer, Performer - Moby\nWritten-By - Richard M. Hall\nNotes:\tBarcode: 7 20841 24102 7\n\n\n\n\n\n\nTracklisting:\n\n\n1.Drop A Beat (4:20)\n\n2.Everything (4:52)\n\n3.Yeah (5:48)\n\n4.Electricity (3:29)\n\n5.Next Is The E (4:42)\n\n6.Mercy (5:44)\n\n7.Go (3:37)\n\n8.Help Me To Believe (6:32)\n\n9.Have You Seen My Baby (4:09)\n\n10.Ah Ah (3:46)\n\n11.Slight Return (4:29)\n\n12.Stream (3:09)\n\n\n\n\nEAC Log :\n\n\n\n\n\n\nExact Audio Copy V0.99 prebeta 4 from 23. January 2008\n\nEAC extraction logfile from 16. December 2008, 9:52\n\nMoby / Moby\n\nUsed drive  : HL-DT-STDVD-RAM GSA-H50L   Adapter: 0  ID: 0\n\nRead mode               : Secure\nUtilize accurate stream : Yes\nDefeat audio cache      : No\nMake use of C2 pointers : No\n\nRead offset correction                      : 102\nOverread into Lead-In and Lead-Out          : No\nFill up missing offset samples with silence : Yes\nDelete leading and trailing silent blocks   : No\nNull samples used in CRC calculations       : No\nUsed interface                              : Native Win32 interface for Win NT &amp; 2000\n\nUsed output format              : User Defined Encoder\nSelected bitrate                : 768 kBit/s\nQuality                         : High\nAdd ID3 tag                     : No\nCommand line compressor         : C:Program FilesExact Audio Copywapet.exe\nAdditional command line options : %d -t &quot;Artist=%a&quot; -t &quot;Title=%t&quot; -t &quot;Album=%g&quot; -t &quot;Year=%y&quot; -t &quot;Track=%n&quot; -t &quot;Genre=%m&quot; &quot;C:Program FilesMonkey's AudioMAC.exe&quot; %s %d -c5000\n\n\nTOC of the extracted CD\n\n     Track |   Start  |  Length  | Start sector | End sector \n    ---------------------------------------------------------\n        1  |  0:00.00 |  4:20.55 |         0    |    19554   \n        2  |  4:20.55 |  4:52.12 |     19555    |    41466   \n        3  |  9:12.67 |  5:48.43 |     41467    |    67609   \n        4  | 15:01.35 |  3:29.05 |     67610    |    83289   \n        5  | 18:30.40 |  4:42.02 |     83290    |   104441   \n        6  | 23:12.42 |  5:44.10 |    104442    |   130251   \n        7  | 28:56.52 |  3:37.18 |    130252    |   146544   \n        8  | 32:33.70 |  6:32.05 |    146545    |   175949   \n        9  | 39:06.00 |  4:09.07 |    175950    |   194631   \n       10  | 43:15.07 |  3:46.35 |    194632    |   211616   \n       11  | 47:01.42 |  4:29.60 |    211617    |   231851   \n       12  | 51:31.27 |  3:09.10 |    231852    |   246036   \n\n\nRange status and errors\n\nSelected range\n\n     Filename F:musicMoby - MobyMoby - Moby.wav\n\n     Peak level 100.0 %\n     Range quality 100.0 %\n     Test CRC 60CD4CA3\n     Copy CRC 60CD4CA3\n     Copy OK\n\nNo errors occurred\n\n \nAccurateRip summary\n \nTrack  1  accurately ripped (confidence 11)  [B3E3C0C4]\nTrack  2  accurately ripped (confidence 10)  [3A235BE0]\nTrack  3  accurately ripped (confidence 11)  [A8BDBDDA]\nTrack  4  accurately ripped (confidence 11)  [CD6FBC39]\nTrack  5  accurately ripped (confidence 11)  [A6C0AB41]\nTrack  6  accurately ripped (confidence 11)  [375DAAD1]\nTrack  7  accurately ripped (confidence 11)  [CB3C9A7A]\nTrack  8  accurately ripped (confidence 11)  [CB333EDE]\nTrack  9  accurately ripped (confidence 11)  [361E8885]\nTrack 10  accurately ripped (confidence 11)  [E3039E12]\nTrack 11  accurately ripped (confidence 11)  [35C8A6C1]\nTrack 12  accurately ripped (confidence 10)  [613BEAB9]\n \nAll tracks accurately ripped\n\nEnd of status report[/left]\n\n\n\n\nCUETools  Log :\n\n\n[Verification date: 4/6/2009 10:01:51 ÃŽÂ¼ÃŽÂ¼]\n[Disc ID: 00193a01-00eafa74-a90cd00c]\nTrack\t[ CRC    ] Status\n 01\t[b3e3c0c4] (15/31) Accurately ripped as in pressing(s) #1\n 02\t[3a235be0] (14/30) Accurately ripped as in pressing(s) #1\n 03\t[a8bdbdda] (15/31) Accurately ripped as in pressing(s) #1\n 04\t[cd6fbc39] (15/31) Accurately ripped as in pressing(s) #1\n 05\t[a6c0ab41] (15/31) Accurately ripped as in pressing(s) #1\n 06\t[375daad1] (15/31) Accurately ripped as in pressing(s) #1\n 07\t[cb3c9a7a] (15/31) Accurately ripped as in pressing(s) #1\n 08\t[cb333ede] (15/31) Accurately ripped as in pressing(s) #1\n 09\t[361e8885] (15/31) Accurately ripped as in pressing(s) #1\n 10\t[e3039e12] (15/31) Accurately ripped as in pressing(s) #1\n 11\t[35c8a6c1] (15/31) Accurately ripped as in pressing(s) #1\n 12\t[613beab9] (13/29) Accurately ripped as in pressing(s) #2\nOffsetted by -1587:\n 01\t[bc05e4b5] (14/31) Accurately ripped as in pressing(s) #2\n 02\t[9e400692] (14/30) Accurately ripped as in pressing(s) #2\n 03\t[5bbbff04] (14/31) Accurately ripped as in pressing(s) #2\n 04\t[43c31159] (14/31) Accurately ripped as in pressing(s) #2\n 05\t[2c80bc69] (14/31) Accurately ripped as in pressing(s) #2\n 06\t[6b3c1c46] (14/31) Accurately ripped as in pressing(s) #2\n 07\t[913d2714] (14/31) Accurately ripped as in pressing(s) #2\n 08\t[5de78e5c] (14/31) Accurately ripped as in pressing(s) #2\n 09\t[7a48f3b5] (14/31) Accurately ripped as in pressing(s) #2\n 10\t[26c3b049] (14/31) Accurately ripped as in pressing(s) #2\n 11\t[06e55ef2] (14/31) Accurately ripped as in pressing(s) #2\n 12\t[7ce000e0] (14/29) Accurately ripped as in pressing(s) #1\nOffsetted by -906:\n 01\t[9073d85c] (02/31) Accurately ripped as in pressing(s) #3\n 02\t[f76453bd] (02/30) Accurately ripped as in pressing(s) #3\n 03\t[5d8276b7] (02/31) Accurately ripped as in pressing(s) #3\n 04\t[6f43e0cd] (02/31) Accurately ripped as in pressing(s) #3\n 05\t[b27161e4] (02/31) Accurately ripped as in pressing(s) #3\n 06\t[87ee5f7b] (02/31) Accurately ripped as in pressing(s) #3\n 07\t[06740155] (02/31) Accurately ripped as in pressing(s) #3\n 08\t[401cdd67] (02/31) Accurately ripped as in pressing(s) #3\n 09\t[3cd5e003] (02/31) Accurately ripped as in pressing(s) #3\n 10\t[bdf9ca7a] (02/31) Accurately ripped as in pressing(s) #3\n 11\t[e61dcd98] (02/31) Accurately ripped as in pressing(s) #3\n 12\t[88ed063e] (02/29) Accurately ripped as in pressing(s) #3\n\nTrack\t[ CRC32  ]\t[W/O NULL]\t[  LOG   ]\n --\t[5FA2531A]\t[60CD4CA3]\t W/O NULL \n 01\t[FB502C05]\t[3F436721]\t\n 02\t[5A322FE5]\t[AAD20118]\t\n 03\t[FECC46E9]\t[C0C7D2F2]\t\n 04\t[B8A40229]\t[095AA4BA]\t\n 05\t[24B0F0C8]\t[5E0481EF]\t\n 06\t[05CA28E5]\t[A9EEC056]\t\n 07\t[4B92BAA4]\t[928D6BB0]\t\n 08\t[1AC49E5D]\t[42E13211]\t\n 09\t[B4AACB63]\t[9075C1D0]\t\n 10\t[2584BC8A]\t[96616706]\t\n 11\t[7E869384]\t[973F8CA7]\t\n 12\t[043B6CE5]\t[27818064]\n\n\n\nEnjoy..\n\n\nThanks for Seeding..!","torrent":{"xt":"urn:btih:bfc4dc85f98428db860bb6d2cd70c0d9378bd612","amp;dn":"Moby+-+Moby+%28+1992+-+First+Album+%29%28+EAC+Flac+%29","amp;tr":["udp%3A%2F%2Ftracker.openbittorrent.com%3A80","udp%3A%2F%2Fopen.demonii.com%3A1337","udp%3A%2F%2Ftracker.coppersurfer.tk%3A6969","udp%3A%2F%2Fexodus.desync.com%3A6969"],"infoHash":"bfc4dc85f98428db860bb6d2cd70c0d9378bd612","infoHashBuffer":{"type":"Buffer","data":[191,196,220,133,249,132,40,219,134,11,182,210,205,112,192,217,55,139,214,18]},"announce":[],"urlList":[]}}